<svg width="13" height="11" viewBox="0 0 13 11" fill="none" xmlns="http://www.w3.org/2000/svg">
<path d="M0.464286 2.02041H12.5357C12.7921 2.02041 13 1.81941 13 1.57143V0.44898C13 0.201003 12.7921 0 12.5357 0H0.464286C0.207855 0 0 0.201003 0 0.44898V1.57143C0 1.81941 0.207855 2.02041 0.464286 2.02041ZM0.464286 6.5102H12.5357C12.7921 6.5102 13 6.3092 13 6.06122V4.93878C13 4.6908 12.7921 4.4898 12.5357 4.4898H0.464286C0.207855 4.4898 0 4.6908 0 4.93878V6.06122C0 6.3092 0.207855 6.5102 0.464286 6.5102ZM0.464286 11H12.5357C12.7921 11 13 10.799 13 10.551V9.42857C13 9.18059 12.7921 8.97959 12.5357 8.97959H0.464286C0.207855 8.97959 0 9.18059 0 9.42857V10.551C0 10.799 0.207855 11 0.464286 11Z" fill="black"/>
</svg>
